<svg width="276" height="346" viewBox="0 0 276 346" fill="none" xmlns="http://www.w3.org/2000/svg">
<mask id="path-1-outside-1_1_17" maskUnits="userSpaceOnUse" x="3" y="0" width="260" height="346" fill="black">
<rect fill="white" x="3" width="260" height="346"/>
<path d="M13 35C13 18.4315 26.4315 5 43 5H233C249.569 5 263 18.4315 263 35V315C263 331.569 249.569 345 233 345H43C26.4315 345 13 331.569 13 315V35Z"/>
</mask>
<path d="M13 35C13 18.4315 26.4315 5 43 5H233C249.569 5 263 18.4315 263 35V315C263 331.569 249.569 345 233 345H43C26.4315 345 13 331.569 13 315V35Z" fill="white"/>
<path d="M3 35C3 15.67 18.67 0 38 0H228C247.33 0 263 15.67 263 35C263 21.1929 249.569 10 233 10H43C31.9543 10 23 21.1929 23 35H3ZM263 315C263 332.121 249.121 346 232 346H34C16.8792 346 3 332.121 3 315H23C23 331.016 31.9543 344 43 344H233C249.569 344 263 331.016 263 315ZM34 346C16.8792 346 3 332.121 3 315V35C3 15.67 18.67 0 38 0L43 10C31.9543 10 23 21.1929 23 35V315C23 331.016 31.9543 344 43 344L34 346ZM263 5V345V5Z" fill="#3F3F3F" mask="url(#path-1-outside-1_1_17)"/>
<ellipse cx="137.955" cy="174.025" rx="60" ry="135" transform="rotate(45 137.955 174.025)" stroke="#2C2C2C" stroke-width="7" stroke-linecap="round"/>
<ellipse cx="137.955" cy="174.025" rx="60" ry="135" transform="rotate(-45 137.955 174.025)" stroke="#2C2C2C" stroke-width="7" stroke-linecap="round"/>
<ellipse cx="137.5" cy="174" rx="50" ry="117.5" transform="rotate(-90 137.5 174)" stroke="#2C2C2C" stroke-width="7" stroke-linecap="round"/>
<circle cx="75.5" cy="99.5" r="12.5" fill="#090909"/>
<circle cx="200.5" cy="252.5" r="12.5" fill="white" stroke="black" stroke-width="5"/>
<circle cx="138" cy="175" r="50" fill="#484848"/>
<path d="M161.223 170.417C164.042 172.409 164.042 176.591 161.223 178.583L131.386 199.671C128.074 202.011 123.5 199.643 123.5 195.587L123.5 153.413C123.5 149.357 128.074 146.989 131.386 149.329L161.223 170.417Z" fill="#D9D9D9"/>
</svg>
